<svg id="Layer_1" data-name="Layer 1" xmlns="http://www.w3.org/2000/svg" viewBox="0 0 403.42 494.11"><defs><style>.cls-1{fill:#360866;}</style></defs><path class="cls-1" d="M266.13,406.67c0,3.23.18,6.47,0,9.68a9,9,0,0,1-8.53,8.77c-4.48.28-9.06-3-9.39-7.82a144.88,144.88,0,0,1,.11-21.45c.41-4.93,4.79-7.68,9.66-7.29,4.56.37,7.78,3.56,8.13,8.44C266.31,400.21,266.13,403.45,266.13,406.67Z"/><path class="cls-1" d="M395.46,139c-13.76-10.35-27.67-20.51-41.52-30.76l-68.26-50.5L271.43,47.22C253.29,33.43,234.89,20,216.57,6.44c-11.6-8.57-17.92-8.59-29.49,0Q118.26,57.28,49.47,108.19C35.63,118.44,21.72,128.6,8,139,1,144.2-1.5,151.83.88,159.4c2.48,7.9,9,12.6,17.87,12.88,2.64.08,5.28,0,8.45,0V471.67c0,15.95,6.54,22.44,22.59,22.44H354c15.73,0,22.34-6.54,22.34-22.12q0-76.73,0-153.46L376.22,286V172.29c3.17,0,5.81.07,8.45,0,8.89-.28,15.39-5,17.87-12.88C404.92,151.83,402.45,144.2,395.46,139ZM239.87,475.47V349h26.79l18.95,0h27v126.4H239.87ZM358,469v6.31H331.4c0-22.26,0-74.17,0-86.93,0-14.71.05-29.41,0-44.11,0-7.47-3.41-10.83-10.89-10.84q-44.12-.06-88.23,0c-7.88,0-11.07,3.14-11.09,11.11-.06,27.85-.06,99.11,0,131.06H45.88V172.31H357.54V286l.48,31.17Q358,393.1,358,469Z"/><path class="cls-1" d="M186.29,210.87c0-7.47-3.41-10.83-10.89-10.84q-44.11-.06-88.22,0c-7.89,0-11.08,3.15-11.1,11.11q-.09,43.85,0,87.69c0,8.37,3,11.34,11.37,11.35q43.58.06,87.15,0c8.59,0,11.69-3.1,11.71-11.62,0-14.52,0-29.05,0-43.57C186.31,240.28,186.36,225.57,186.29,210.87Zm-30,79-25.1-11.92-25.1,11.92,3.59-27.55-19.1-20.19L117.89,237l13.29-24.4,13.3,24.4,27.32,5.11-19.1,20.19Z"/><path class="cls-1" d="M331.38,210.87c0-7.47-3.41-10.83-10.89-10.84q-44.12-.06-88.23,0c-7.88,0-11.07,3.15-11.09,11.11q-.09,43.85,0,87.69c0,8.37,3,11.34,11.38,11.35q43.57.06,87.15,0c8.59,0,11.68-3.1,11.7-11.62,0-14.52,0-29.05,0-43.57C331.4,240.28,331.45,225.57,331.38,210.87Zm-28.68,79-25.1-11.92-25.1,11.92,3.59-27.55L237,242.12,264.3,237l13.3-24.4L290.9,237l27.31,5.11-19.09,20.19Z"/><path class="cls-1" d="M186.29,344.3c0-7.47-3.41-10.83-10.89-10.84q-44.11-.06-88.22,0c-7.89,0-11.08,3.14-11.1,11.11q-.09,43.85,0,87.69c0,8.36,3,11.34,11.37,11.35q43.58.06,87.15,0c8.59,0,11.69-3.1,11.71-11.62,0-14.52,0-29.05,0-43.57C186.31,373.7,186.36,359,186.29,344.3Zm-30,79.54-25.1-11.93-25.1,11.93,3.59-27.56-19.1-20.19,27.32-5.1,13.29-24.4,13.3,24.4,27.32,5.1-19.1,20.19Z"/></svg>