<svg id="Layer_1" data-name="Layer 1" xmlns="http://www.w3.org/2000/svg" viewBox="0 0 312.53 382.79"><defs><style>.cls-1{fill:#fff;}</style></defs><path class="cls-1" d="M206.17,315.05c0,2.5.14,5,0,7.49a7,7,0,0,1-6.6,6.8,6.81,6.81,0,0,1-7.27-6.06,111.09,111.09,0,0,1,.08-16.62c.32-3.81,3.71-5.94,7.48-5.64a6.65,6.65,0,0,1,6.3,6.54C206.31,310,206.17,312.55,206.17,315.05Z"/><path class="cls-1" d="M306.36,107.64c-10.66-8-21.43-15.89-32.16-23.82L221.31,44.69l-11-8.11C196.22,25.9,182,15.48,167.78,5c-9-6.64-13.89-6.66-22.85,0Q91.62,44.38,38.33,83.82C27.6,91.75,16.83,99.63,6.16,107.64c-5.41,4.07-7.32,10-5.48,15.84,1.92,6.12,7,9.77,13.85,10,2,.07,4.09,0,6.54,0V365.4c0,12.35,5.07,17.38,17.51,17.38q117.84,0,235.69,0c12.18,0,17.3-5.06,17.3-17.13q0-59.44,0-118.89l-.11-25.19v-88.1c2.45,0,4.5.06,6.54,0,6.89-.21,11.92-3.86,13.85-10C313.69,117.62,311.78,111.71,306.36,107.64ZM185.82,368.34V270.4h20.76l14.68,0h20.93v97.92H185.82Zm91.53-5v4.89H256.74c0-17.24,0-57.45,0-67.34,0-11.39,0-22.78,0-34.18,0-5.78-2.64-8.38-8.44-8.39q-34.17,0-68.35,0c-6.1,0-8.58,2.43-8.59,8.6-.05,21.57-.05,76.78,0,101.54H35.54v-235H277v88.08l.36,24.14Q277.33,304.54,277.35,363.35Z"/><path class="cls-1" d="M144.32,163.36c0-5.79-2.64-8.39-8.44-8.4q-34.17,0-68.34,0c-6.11,0-8.59,2.43-8.6,8.6q-.07,34,0,67.93c0,6.49,2.34,8.79,8.81,8.8q33.75,0,67.51,0c6.66,0,9.05-2.41,9.07-9,0-11.25,0-22.51,0-33.76S144.37,174.75,144.32,163.36Zm-23.25,61.2-19.44-9.24-19.45,9.24L85,203.21l-14.8-15.64,21.17-4,10.3-18.9,10.3,18.9,21.16,4-14.8,15.64Z"/><path class="cls-1" d="M256.72,163.36c0-5.79-2.64-8.39-8.44-8.4q-34.17,0-68.35,0c-6.1,0-8.58,2.43-8.59,8.6q-.08,34,0,67.93c0,6.49,2.34,8.79,8.82,8.8q33.75,0,67.51,0c6.66,0,9-2.41,9.07-9,0-11.25,0-22.51,0-33.76S256.77,174.75,256.72,163.36Zm-22.22,61.2-19.44-9.24-19.45,9.24,2.78-21.35-14.8-15.64,21.17-4,10.3-18.9,10.3,18.9,21.16,4-14.8,15.64Z"/><path class="cls-1" d="M144.32,266.72c0-5.78-2.64-8.38-8.44-8.39q-34.17,0-68.34,0c-6.11,0-8.59,2.43-8.6,8.6q-.07,34,0,67.93c0,6.48,2.34,8.78,8.81,8.79q33.75.06,67.51,0c6.66,0,9.05-2.41,9.07-9,0-11.26,0-22.51,0-33.76S144.37,278.12,144.32,266.72Zm-23.25,61.63-19.44-9.24-19.45,9.24L85,307l-14.8-15.64,21.17-4,10.3-18.9,10.3,18.9,21.16,4L118.29,307Z"/></svg>