<svg id="Layer_1" data-name="Layer 1" xmlns="http://www.w3.org/2000/svg" viewBox="0 0 145.3 177.97"><defs><style>.cls-1{fill:#360866;}</style></defs><path class="cls-1" d="M95.85,146.47c0,1.17.07,2.33,0,3.49a3.24,3.24,0,0,1-3.07,3.16,3.17,3.17,0,0,1-3.38-2.82,51,51,0,0,1,0-7.72A3,3,0,0,1,92.91,140a3.09,3.09,0,0,1,2.93,3C95.92,144.15,95.85,145.31,95.85,146.47Z"/><path class="cls-1" d="M142.44,50.05c-5-3.73-10-7.39-15-11.08q-12.28-9.1-24.59-18.19L97.76,17C91.23,12,84.6,7.2,78,2.32c-4.17-3.09-6.45-3.09-10.62,0L17.82,39c-5,3.69-10,7.35-14.95,11.08A6.48,6.48,0,0,0,.32,57.41a6.52,6.52,0,0,0,6.43,4.64c1,0,1.91,0,3.05,0V169.88c0,5.75,2.35,8.09,8.13,8.09H127.51c5.67,0,8-2.36,8-8V114.73L135.51,103q0-19.22,0-38.44V62.06c1.15,0,2.1,0,3.05,0a6.58,6.58,0,0,0,3.89-12Zm-56,121.2V125.72H112.6v45.53H86.39ZM129,168.93v2.27h-9.59c0-8,0-26.71,0-31.3,0-5.3,0-10.6,0-15.89,0-2.69-1.23-3.9-3.93-3.91H83.66c-2.84,0-4,1.13-4,4,0,10,0,35.7,0,47.21H16.52V62.06H128.78v41l.17,11.23Q128.94,141.59,129,168.93Z"/><path class="cls-1" d="M67.1,76c0-2.69-1.23-3.9-3.92-3.9q-15.9,0-31.78,0c-2.84,0-4,1.14-4,4q0,15.79,0,31.59c0,3,1.09,4.08,4.1,4.09q15.69,0,31.39,0c3.09,0,4.21-1.12,4.21-4.19q0-7.84,0-15.69C67.11,86.54,67.12,81.25,67.1,76Zm-20,1.75a6.63,6.63,0,1,1-6.63,6.62A6.62,6.62,0,0,1,47.13,77.7Zm11.66,28.37H35.46V98a4,4,0,0,1,4-4H54.82a4,4,0,0,1,4,4Z"/><path class="cls-1" d="M119.36,76c0-2.69-1.23-3.9-3.93-3.9q-15.89,0-31.77,0c-2.84,0-4,1.14-4,4q0,15.79,0,31.59c0,3,1.09,4.08,4.09,4.09q15.7,0,31.39,0c3.1,0,4.21-1.12,4.22-4.19,0-5.23,0-10.46,0-15.69S119.38,81.25,119.36,76Zm-20,1.75a6.63,6.63,0,1,1-6.62,6.62A6.62,6.62,0,0,1,99.38,77.7Zm11.67,28.37H87.72V98a4,4,0,0,1,4-4h15.4a4,4,0,0,1,4,4Z"/><path class="cls-1" d="M67.1,124c0-2.69-1.23-3.9-3.92-3.91H31.4c-2.84,0-4,1.13-4,4q0,15.79,0,31.58c0,3,1.09,4.09,4.1,4.09q15.69,0,31.39,0c3.09,0,4.21-1.11,4.21-4.18q0-7.84,0-15.69C67.11,134.6,67.12,129.3,67.1,124Zm-20,.75a6.63,6.63,0,1,1-6.63,6.62A6.62,6.62,0,0,1,47.13,124.76Zm11.66,28.37H35.46v-8.08a4,4,0,0,1,4-4H54.82a4,4,0,0,1,4,4Z"/></svg>