<svg id="Layer_1" data-name="Layer 1" xmlns="http://www.w3.org/2000/svg" viewBox="0 0 145.3 177.97"><defs><style>.cls-1{fill:#fff;}</style></defs><path class="cls-1" d="M142.44,50.05c-5-3.73-10-7.39-15-11.08q-12.28-9.1-24.59-18.19L97.76,17C91.23,12,84.6,7.2,78,2.32c-4.17-3.09-6.45-3.09-10.62,0L17.82,39c-5,3.69-10,7.35-14.95,11.08A6.48,6.48,0,0,0,.32,57.41a6.52,6.52,0,0,0,6.43,4.64c1,0,1.91,0,3.05,0V169.88c0,5.75,2.35,8.09,8.13,8.09H127.51c5.67,0,8-2.36,8-8V114.73L135.51,103V62.06c1.14,0,2.09,0,3,0a6.58,6.58,0,0,0,3.89-12ZM129,168.93v2.27l-49.67.11H16.52V62.06H128.78v41l.17,11.23Q128.94,141.59,129,168.93Z"/><circle class="cls-1" cx="72.74" cy="94.5" r="19.9"/><path class="cls-1" d="M95.85,123.63H49.62a12,12,0,0,0-11.91,11.91v24.24h70.05V135.54A12,12,0,0,0,95.85,123.63Z"/></svg>