<svg id="Layer_1" data-name="Layer 1" xmlns="http://www.w3.org/2000/svg" viewBox="0 0 88.98 87.75"><defs><style>.cls-1{fill:#360866;}</style></defs><path class="cls-1" d="M39.71,3.91c0-2.68-1.23-3.9-3.92-3.9H4C1.17,0,0,1.14,0,4q0,15.8,0,31.58c0,3,1.09,4.09,4.1,4.09q15.69,0,31.39,0c3.1,0,4.21-1.12,4.22-4.18,0-5.23,0-10.47,0-15.7S39.74,9.21,39.71,3.91Zm-20,1.75a6.63,6.63,0,1,1-6.63,6.63A6.63,6.63,0,0,1,19.74,5.66ZM31.4,34H8.08V26a4,4,0,0,1,4-4h15.4a4,4,0,0,1,4,4Z"/><path class="cls-1" d="M89,3.91C89,1.23,87.74,0,85.05,0H53.27c-2.84,0-4,1.13-4,4q0,15.8,0,31.58c0,3,1.09,4.09,4.1,4.09q15.69,0,31.39,0c3.09,0,4.21-1.12,4.21-4.18,0-5.23,0-10.47,0-15.7S89,9.21,89,3.91ZM69,5.66a6.63,6.63,0,1,1-6.63,6.63A6.62,6.62,0,0,1,69,5.66ZM80.66,34H57.33V26a4,4,0,0,1,4-4H76.7a4,4,0,0,1,4,4Z"/><path class="cls-1" d="M89,51.91c0-2.68-1.23-3.9-3.92-3.9H53.27c-2.84,0-4,1.13-4,4q0,15.8,0,31.58c0,3,1.09,4.09,4.1,4.09q15.69,0,31.39,0c3.09,0,4.21-1.12,4.21-4.18,0-5.23,0-10.47,0-15.7S89,57.21,89,51.91ZM69,53.66a6.63,6.63,0,1,1-6.63,6.63A6.62,6.62,0,0,1,69,53.66ZM80.66,82H57.33V74a4,4,0,0,1,4-4H76.7a4,4,0,0,1,4,4Z"/><path class="cls-1" d="M39.71,52c0-2.69-1.23-3.9-3.92-3.9Q19.91,48,4,48.07c-2.84,0-4,1.13-4,4Q0,67.85,0,83.65c0,3,1.09,4.08,4.1,4.09q15.69,0,31.39,0c3.1,0,4.21-1.12,4.22-4.18,0-5.24,0-10.47,0-15.7S39.74,57.27,39.71,52Zm-20,.75a6.63,6.63,0,1,1-6.63,6.63A6.63,6.63,0,0,1,19.74,52.72ZM31.4,81.09H8.08V73a4,4,0,0,1,4-4h15.4a4,4,0,0,1,4,4Z"/></svg>